<svg id="svg" version="1.1" xmlns="http://www.w3.org/2000/svg" xmlns:xlink="http://www.w3.org/1999/xlink" width="400" height="400" viewBox="0, 0, 400,400"><g id="svgg"><path id="path0" d="M192.407 114.548 C 173.126 124.177,158.861 128.705,136.111 132.415 C 130.407 133.345,125.423 134.202,125.035 134.318 C 124.218 134.565,124.291 140.340,125.373 161.111 C 126.552 183.750,127.604 190.845,132.061 206.227 C 133.435 210.970,133.509 210.989,134.456 206.824 C 134.916 204.802,135.433 202.870,135.606 202.530 C 135.782 202.183,135.776 201.858,135.592 201.789 C 135.274 201.670,133.601 194.704,132.450 188.704 C 130.873 180.488,128.952 140.265,130.093 139.348 C 130.347 139.144,132.889 138.611,135.741 138.165 C 161.951 134.068,174.696 130.122,195.455 119.681 C 199.368 117.713,198.830 117.635,206.336 121.260 C 224.374 129.971,235.563 133.605,253.704 136.639 C 262.407 138.094,265.812 138.694,267.744 139.110 L 268.636 139.303 268.388 148.633 C 268.121 158.730,267.294 174.375,266.627 181.963 C 266.143 187.464,266.002 187.071,268.339 186.736 C 270.476 186.431,270.396 186.647,271.083 179.259 C 271.966 169.761,273.579 134.937,273.156 134.514 C 272.963 134.321,265.219 132.908,258.519 131.843 C 247.396 130.076,240.099 128.342,231.111 125.332 C 222.878 122.574,213.896 118.788,204.728 114.208 C 198.883 111.289,198.937 111.287,192.407 114.548 M193.219 126.144 C 177.322 134.193,165.008 138.209,146.757 141.300 C 141.309 142.222,136.450 143.067,135.960 143.177 L 135.067 143.377 135.309 153.077 C 135.688 168.279,136.858 185.227,137.909 190.726 L 138.366 193.119 138.857 190.924 C 139.687 187.214,139.739 187.159,142.631 186.873 C 145.628 186.578,145.768 186.636,146.080 188.297 C 146.211 188.994,147.213 192.705,148.306 196.542 C 150.598 204.581,152.746 213.881,152.475 214.588 C 152.364 214.876,151.335 215.174,149.941 215.322 C 147.260 215.607,146.526 215.119,146.082 212.751 C 145.845 211.492,145.828 211.482,143.940 211.532 C 142.893 211.560,142.379 211.650,142.798 211.733 C 143.331 211.839,143.685 212.356,143.981 213.462 C 148.012 228.533,163.014 250.545,177.940 263.288 C 186.751 270.810,190.386 273.393,196.268 276.312 L 198.595 277.466 200.501 276.659 C 203.343 275.456,211.020 270.671,213.928 268.290 C 235.276 250.816,247.349 233.609,255.109 209.597 C 260.060 194.276,261.622 182.361,262.534 152.963 C 262.867 142.231,263.442 143.334,256.947 142.252 C 240.743 139.552,235.640 138.423,227.736 135.793 C 219.877 133.178,210.587 129.232,203.040 125.303 C 199.114 123.259,198.878 123.279,193.219 126.144 M106.389 186.562 C 106.949 186.646,107.866 186.646,108.426 186.562 C 108.986 186.477,108.528 186.407,107.407 186.407 C 106.287 186.407,105.829 186.477,106.389 186.562 M180.509 190.833 C 180.687 193.227,180.968 195.185,181.134 195.185 C 181.430 195.185,183.427 192.570,186.224 188.519 L 187.630 186.481 190.081 186.481 C 191.428 186.481,192.650 186.600,192.794 186.745 C 193.091 187.042,190.605 191.155,187.587 195.361 L 185.576 198.164 188.270 202.879 C 189.752 205.471,191.435 208.509,192.009 209.630 C 192.584 210.750,193.466 212.374,193.969 213.239 C 195.076 215.143,194.896 215.269,191.299 215.111 L 188.782 215.000 186.997 211.852 C 186.016 210.120,184.508 207.412,183.646 205.833 C 181.284 201.505,180.926 201.954,180.541 209.730 C 180.233 215.944,180.261 215.901,176.847 215.389 L 175.185 215.140 175.185 200.934 C 175.185 189.920,175.289 186.685,175.648 186.533 C 175.903 186.426,177.028 186.370,178.148 186.410 L 180.185 186.481 180.509 190.833 M217.483 191.852 C 220.612 203.043,223.411 214.389,223.149 214.814 C 222.874 215.259,218.501 215.572,217.801 215.198 C 217.438 215.004,216.925 214.069,216.659 213.121 L 216.176 211.397 214.518 211.625 C 213.606 211.750,212.229 211.852,211.459 211.852 C 210.203 211.852,210.034 211.967,209.814 212.967 C 209.409 214.811,208.747 215.185,205.888 215.185 C 202.222 215.185,202.054 217.108,207.409 197.778 C 208.622 193.398,209.718 189.363,209.844 188.811 C 210.215 187.185,211.416 186.700,214.802 186.810 L 216.085 186.852 217.483 191.852 M235.822 186.965 C 236.071 187.123,236.953 190.329,237.783 194.089 C 238.613 197.849,239.394 201.176,239.519 201.481 C 239.644 201.787,239.706 202.287,239.657 202.593 C 239.597 202.964,239.691 203.025,239.941 202.778 C 240.146 202.574,241.003 199.241,241.844 195.370 C 243.887 185.972,243.503 186.667,246.659 186.667 C 248.245 186.667,249.259 186.820,249.259 187.060 C 249.259 189.141,244.695 208.263,243.032 213.148 L 242.401 215.000 240.112 215.110 C 237.054 215.256,236.884 214.891,233.888 201.717 C 233.002 197.819,231.909 193.089,231.461 191.206 C 230.472 187.053,230.645 186.664,233.471 186.672 C 234.516 186.675,235.574 186.807,235.822 186.965 M324.916 189.630 C 324.916 190.546,324.988 190.921,325.076 190.463 C 325.164 190.005,325.164 189.255,325.076 188.796 C 324.988 188.338,324.916 188.713,324.916 189.630 M329.731 191.111 C 329.731 192.028,329.803 192.403,329.891 191.944 C 329.979 191.486,329.979 190.736,329.891 190.278 C 329.803 189.819,329.731 190.194,329.731 191.111 M76.785 194.444 C 76.785 195.769,76.852 196.310,76.935 195.648 C 77.017 194.986,77.017 193.903,76.935 193.241 C 76.852 192.579,76.785 193.120,76.785 194.444 M142.480 198.519 C 142.065 199.594,141.175 204.618,141.349 204.900 C 141.925 205.833,144.827 205.175,144.586 204.167 C 143.915 201.351,142.673 198.019,142.480 198.519 M266.924 198.402 C 266.811 198.585,266.629 199.395,266.520 200.201 C 266.411 201.007,266.142 202.402,265.923 203.300 C 265.625 204.523,265.636 205.034,265.965 205.337 C 266.289 205.634,266.336 205.618,266.142 205.276 C 265.998 205.020,266.051 204.270,266.260 203.609 C 267.504 199.680,267.671 198.945,267.414 198.529 C 267.258 198.276,267.037 198.219,266.924 198.402 M212.171 201.944 L 211.641 205.000 213.268 205.115 C 215.397 205.264,215.366 205.350,214.431 201.886 C 213.388 198.020,212.849 198.034,212.171 201.944 M104.571 211.667 C 104.573 213.296,104.638 213.917,104.716 213.046 C 104.794 212.175,104.793 210.841,104.714 210.083 C 104.634 209.324,104.570 210.037,104.571 211.667 M76.390 210.556 C 76.394 211.370,76.470 211.660,76.558 211.199 C 76.647 210.739,76.643 210.072,76.551 209.718 C 76.458 209.364,76.386 209.741,76.390 210.556 M138.515 214.825 C 138.212 215.017,137.338 215.176,136.574 215.180 C 134.836 215.187,134.818 214.992,137.068 220.642 C 139.512 226.779,141.691 231.100,145.872 238.102 C 155.554 254.317,164.528 264.346,181.550 277.972 C 185.849 281.413,197.113 288.148,198.569 288.148 C 200.232 288.148,210.997 281.952,215.553 278.371 C 232.518 265.042,242.284 254.043,252.634 236.610 C 256.539 230.031,257.386 228.311,260.719 220.185 L 262.846 215.000 260.762 215.121 L 258.678 215.243 257.798 217.529 C 249.606 238.823,236.944 255.433,215.332 273.236 C 210.895 276.891,200.852 282.593,198.851 282.593 C 196.940 282.593,188.130 277.424,183.109 273.358 C 161.711 256.028,148.903 239.436,140.917 218.704 C 139.257 214.393,139.240 214.366,138.515 214.825 " stroke="none" fill="#05bbc3" fill-rule="evenodd"></path><path id="path1" d="M117.577 186.537 C 117.156 186.627,116.310 187.552,115.667 188.627 C 115.032 189.688,113.497 191.869,112.256 193.475 L 110.000 196.394 110.000 193.807 C 110.000 192.384,109.893 190.195,109.762 188.943 L 109.524 186.667 107.169 186.667 L 104.815 186.667 104.815 200.926 L 104.815 215.185 107.166 215.185 L 109.518 215.185 109.757 211.574 C 109.889 209.588,110.001 207.130,110.006 206.111 C 110.013 204.911,110.250 203.955,110.681 203.395 L 111.346 202.531 112.582 204.877 C 113.262 206.167,114.159 207.712,114.576 208.310 C 114.993 208.908,116.009 210.658,116.834 212.198 L 118.335 215.000 120.890 215.111 C 122.295 215.172,123.587 215.079,123.761 214.906 C 124.057 214.610,121.056 208.842,116.730 201.389 L 114.848 198.148 117.554 194.352 C 120.365 190.406,122.412 187.095,122.175 186.877 C 121.917 186.640,118.337 186.375,117.577 186.537 M175.648 186.533 C 175.289 186.685,175.185 189.920,175.185 200.934 L 175.185 215.140 176.847 215.389 C 180.261 215.901,180.233 215.944,180.541 209.730 C 180.926 201.954,181.284 201.505,183.646 205.833 C 184.508 207.412,186.016 210.120,186.997 211.852 L 188.782 215.000 191.299 215.111 C 194.896 215.269,195.076 215.143,193.969 213.239 C 193.466 212.374,192.584 210.750,192.009 209.630 C 191.435 208.509,189.752 205.471,188.270 202.879 L 185.576 198.164 187.587 195.361 C 190.605 191.155,193.091 187.042,192.794 186.745 C 192.650 186.600,191.428 186.481,190.081 186.481 L 187.630 186.481 186.225 188.519 C 185.452 189.639,183.943 191.750,182.873 193.209 L 180.926 195.863 180.556 191.172 L 180.185 186.481 178.148 186.410 C 177.028 186.370,175.903 186.426,175.648 186.533 M66.855 188.495 C 66.438 191.530,66.689 191.852,69.479 191.852 L 71.872 191.852 71.618 202.947 C 71.333 215.405,71.294 215.189,73.842 215.180 C 76.475 215.170,76.346 215.723,76.612 203.288 L 76.852 192.037 79.259 191.852 L 81.667 191.667 81.667 189.259 L 81.667 186.852 74.387 186.757 L 67.107 186.662 66.855 188.495 M90.617 186.914 C 90.481 187.049,90.370 193.474,90.370 201.191 L 90.370 215.221 92.685 215.110 L 95.000 215.000 95.097 200.833 L 95.194 186.667 93.029 186.667 C 91.838 186.667,90.753 186.778,90.617 186.914 M141.611 186.928 C 139.781 187.104,139.841 186.985,138.000 194.074 C 137.286 196.824,136.379 200.074,135.984 201.296 C 135.590 202.519,134.642 205.994,133.878 209.020 C 132.284 215.331,132.237 215.174,135.741 215.174 C 138.410 215.174,138.722 215.005,139.155 213.333 C 139.736 211.087,145.676 210.588,146.082 212.751 C 146.526 215.119,147.260 215.607,149.941 215.322 C 151.335 215.174,152.364 214.876,152.475 214.588 C 152.737 213.903,150.625 204.665,148.504 197.222 C 147.517 193.759,146.482 190.009,146.204 188.889 C 145.646 186.637,145.457 186.557,141.611 186.928 M212.224 186.933 C 210.628 187.136,210.138 187.522,209.844 188.811 C 209.718 189.363,208.622 193.398,207.409 197.778 C 202.054 217.108,202.222 215.185,205.888 215.185 C 208.747 215.185,209.409 214.811,209.814 212.967 C 210.034 211.967,210.203 211.852,211.459 211.852 C 212.229 211.852,213.606 211.750,214.518 211.625 L 216.176 211.397 216.659 213.121 C 216.925 214.069,217.438 215.004,217.801 215.198 C 218.501 215.572,222.874 215.259,223.149 214.814 C 223.411 214.389,220.612 203.043,217.483 191.852 L 216.085 186.852 214.802 186.810 C 214.096 186.787,212.936 186.843,212.224 186.933 M231.109 187.225 C 230.734 187.676,230.801 188.437,231.461 191.206 C 231.909 193.089,233.002 197.819,233.888 201.717 C 236.884 214.891,237.054 215.256,240.112 215.110 L 242.401 215.000 243.032 213.148 C 244.695 208.263,249.259 189.141,249.259 187.060 C 249.259 186.820,248.245 186.667,246.659 186.667 C 243.503 186.667,243.887 185.972,241.844 195.370 C 241.003 199.241,240.191 202.535,240.041 202.690 C 239.891 202.846,238.984 199.437,238.026 195.116 C 237.068 190.794,236.078 187.128,235.827 186.968 C 234.997 186.441,231.606 186.626,231.109 187.225 M265.953 187.159 C 264.712 187.487,264.249 187.817,264.044 188.519 C 263.608 190.014,259.377 205.356,258.087 210.121 C 256.710 215.205,256.695 215.171,260.232 215.180 C 262.684 215.186,263.182 214.881,263.663 213.079 C 263.959 211.969,265.230 211.573,268.709 211.509 C 270.166 211.482,270.210 211.519,270.854 213.333 L 271.512 215.185 274.067 215.185 C 277.181 215.185,277.260 215.073,276.496 211.738 C 276.160 210.273,275.638 207.991,275.336 206.667 C 275.034 205.343,273.886 201.009,272.784 197.037 C 271.682 193.065,270.598 189.106,270.376 188.241 C 269.919 186.463,269.228 186.294,265.953 187.159 M292.573 187.342 C 283.205 191.762,282.325 210.420,291.293 214.494 C 296.835 217.012,306.211 212.653,302.062 209.488 C 300.514 208.308,300.241 208.296,298.771 209.343 C 293.191 213.316,287.906 203.098,291.413 195.116 C 292.812 191.931,295.660 190.991,297.913 192.969 L 299.275 194.164 300.721 193.162 C 303.020 191.569,303.097 190.382,301.004 188.791 C 298.086 186.573,295.240 186.084,292.573 187.342 M313.157 188.224 C 313.032 189.099,312.979 195.481,313.039 202.407 L 313.148 215.000 315.336 215.113 C 318.187 215.260,318.136 215.385,318.142 208.241 L 318.148 202.222 319.537 202.219 C 320.301 202.217,321.801 202.111,322.870 201.982 L 324.815 201.749 324.815 208.084 C 324.815 215.144,324.833 215.192,327.476 215.180 C 329.811 215.169,329.788 215.249,329.944 206.636 C 330.022 202.323,329.965 196.065,329.818 192.730 L 329.551 186.667 327.423 186.667 L 325.296 186.667 325.055 190.057 C 324.923 191.922,324.815 194.241,324.815 195.210 L 324.815 196.974 322.500 197.098 C 321.227 197.166,319.731 197.170,319.177 197.106 L 318.169 196.990 318.066 191.921 L 317.963 186.852 315.673 186.742 L 313.384 186.633 313.157 188.224 M214.986 203.981 L 215.244 205.185 213.411 205.185 L 211.577 205.185 211.899 203.426 C 212.076 202.458,212.416 200.750,212.653 199.630 L 213.084 197.593 213.906 200.185 C 214.358 201.611,214.844 203.319,214.986 203.981 M144.586 204.167 C 144.826 205.175,144.810 205.185,142.970 205.185 C 141.948 205.185,141.111 205.120,141.111 205.040 C 141.111 204.639,142.295 198.999,142.481 198.519 C 142.673 198.019,143.915 201.354,144.586 204.167 M268.088 200.463 C 269.510 205.097,269.513 205.050,267.736 205.334 C 265.598 205.676,265.458 205.385,266.127 202.013 C 267.071 197.261,267.099 197.239,268.088 200.463 " stroke="none" fill="#f4f8f8" fill-rule="evenodd"></path><path id="path2" d="M0.000 200.000 L 0.000 400.000 200.000 400.000 L 400.000 400.000 400.000 200.000 L 400.000 0.000 200.000 0.000 L 0.000 0.000 0.000 200.000 M203.799 113.482 C 227.228 124.742,239.206 128.579,261.667 132.023 C 266.922 132.829,273.032 134.020,273.304 134.292 C 273.991 134.978,272.391 170.232,271.197 180.741 C 270.377 187.950,270.388 188.057,272.709 196.111 C 274.646 202.831,277.070 212.686,277.174 214.259 C 277.216 214.903,276.888 215.045,274.667 215.343 C 271.821 215.725,270.951 215.216,270.486 212.893 C 270.278 211.854,270.272 211.852,267.269 211.854 L 264.259 211.856 263.018 215.280 C 261.392 219.764,257.594 228.629,256.395 230.741 C 244.115 252.360,235.147 263.055,217.116 277.579 C 212.728 281.114,203.819 286.605,200.305 287.940 L 198.574 288.598 196.416 287.614 C 192.610 285.878,184.841 281.009,181.310 278.148 C 171.895 270.518,162.677 261.950,158.795 257.222 C 149.718 246.165,141.153 231.905,136.615 220.290 C 134.760 215.543,134.565 215.209,133.642 215.198 C 132.402 215.182,132.237 214.688,132.771 212.594 C 133.142 211.141,133.088 210.586,132.353 208.272 C 127.038 191.536,125.405 178.352,124.227 142.695 C 123.929 133.671,123.860 133.905,126.956 133.530 C 152.087 130.485,172.040 124.518,194.074 113.457 C 198.877 111.047,198.729 111.046,203.799 113.482 M195.370 120.081 C 176.616 129.736,162.485 134.176,137.593 138.236 L 130.185 139.444 130.068 142.778 C 129.894 147.754,130.816 167.567,131.834 180.741 C 132.203 185.510,133.056 190.512,134.705 197.572 L 135.652 201.626 136.346 199.424 C 138.096 193.870,138.204 193.139,137.639 190.652 C 136.449 185.419,134.825 161.018,134.818 148.267 L 134.815 143.015 136.759 142.645 C 137.829 142.441,139.787 142.104,141.111 141.894 C 164.181 138.246,175.357 134.779,193.605 125.610 C 198.448 123.177,199.193 123.006,200.926 123.931 C 217.691 132.885,231.873 137.659,251.481 140.953 C 255.657 141.654,259.949 142.420,261.019 142.654 L 262.963 143.081 262.962 148.300 C 262.961 152.969,262.226 169.847,261.663 178.148 C 259.426 211.103,244.291 242.538,220.950 262.711 C 208.311 273.634,200.302 278.511,197.229 277.157 C 176.610 268.066,150.833 237.384,143.686 213.426 C 143.219 211.862,143.205 211.852,141.463 211.852 C 138.876 211.852,138.812 212.654,140.966 218.067 C 145.493 229.442,152.373 241.173,160.563 251.481 C 171.738 265.545,195.284 283.701,200.131 281.991 C 202.679 281.092,211.740 275.836,213.889 274.010 C 214.296 273.664,215.812 272.412,217.256 271.228 C 236.128 255.756,248.822 239.040,256.827 219.120 C 258.309 215.434,258.359 215.185,257.632 215.185 C 256.713 215.185,256.739 214.316,257.771 210.551 C 258.328 208.516,259.331 204.852,259.999 202.407 C 264.433 186.185,264.148 187.037,265.139 187.037 C 265.704 187.037,265.848 186.394,266.236 182.130 C 267.204 171.498,268.277 149.037,268.090 143.339 L 267.963 139.456 266.481 139.186 C 265.667 139.037,261.917 138.406,258.148 137.782 C 235.656 134.061,225.828 130.996,206.332 121.619 C 198.885 118.037,199.243 118.087,195.370 120.081 M76.327 186.667 L 81.852 186.667 81.852 189.259 L 81.852 191.852 79.444 191.852 L 77.037 191.852 76.986 195.833 C 76.958 198.023,76.833 203.231,76.708 207.407 L 76.481 215.000 74.074 215.000 L 71.667 215.000 71.569 203.389 L 71.471 191.778 69.161 191.907 L 66.852 192.037 66.852 189.444 L 66.852 186.852 68.333 186.628 C 69.148 186.505,70.037 186.464,70.308 186.536 C 70.579 186.608,73.288 186.667,76.327 186.667 M95.486 195.926 C 95.550 201.120,95.492 207.558,95.358 210.231 L 95.114 215.092 93.049 215.334 C 90.190 215.670,90.333 216.440,90.362 200.907 C 90.390 185.195,90.177 186.237,93.333 186.385 L 95.370 186.481 95.486 195.926 M110.000 191.248 L 110.185 196.015 112.684 192.545 C 114.058 190.636,115.564 188.491,116.030 187.778 C 116.844 186.534,116.978 186.477,119.370 186.372 C 123.244 186.201,123.104 186.884,117.697 194.542 L 115.144 198.159 117.086 201.579 C 124.579 214.782,124.666 214.992,122.760 215.349 C 119.808 215.903,118.214 215.291,117.155 213.196 C 116.627 212.151,115.665 210.463,115.017 209.444 C 114.369 208.426,113.281 206.543,112.599 205.260 C 110.793 201.862,110.394 202.512,110.118 209.290 C 109.869 215.392,109.798 215.556,107.392 215.556 C 104.186 215.556,104.444 216.808,104.444 201.287 C 104.444 184.985,104.200 186.233,107.361 186.373 L 109.815 186.481 110.000 191.248 M298.615 187.049 C 302.650 188.982,303.530 190.686,301.495 192.622 C 299.716 194.315,298.972 194.420,297.778 193.148 C 295.693 190.929,292.335 192.514,291.233 196.236 C 288.702 204.792,293.143 212.352,298.765 209.057 L 300.374 208.115 302.039 209.260 C 307.165 212.788,296.497 217.605,290.681 214.388 C 279.056 207.958,286.770 181.373,298.615 187.049 M317.650 186.580 C 317.917 186.750,318.181 188.773,318.349 191.945 L 318.618 197.037 320.328 197.033 C 321.268 197.031,322.662 196.926,323.426 196.799 L 324.815 196.570 324.815 191.849 C 324.815 186.347,324.896 186.200,327.840 186.368 L 329.815 186.481 329.815 200.741 L 329.815 215.000 327.407 215.000 L 325.000 215.000 324.899 208.611 L 324.797 202.222 322.630 202.222 C 321.438 202.222,319.942 202.326,319.306 202.454 L 318.148 202.685 318.148 208.889 L 318.148 215.093 316.019 215.278 C 312.315 215.599,312.557 216.536,312.765 202.670 C 312.864 196.007,312.950 189.692,312.955 188.636 C 312.962 186.828,313.023 186.707,313.981 186.562 C 315.763 186.292,317.209 186.299,317.650 186.580 M267.054 202.315 C 266.783 203.384,266.484 204.468,266.389 204.722 C 266.221 205.176,268.525 205.425,268.951 205.000 C 269.184 204.766,268.056 200.370,267.763 200.370 C 267.645 200.370,267.326 201.245,267.054 202.315 " stroke="none" fill="#040404" fill-rule="evenodd"></path><path id="path3" d="M124.218 139.074 C 124.219 141.722,124.278 142.757,124.349 141.373 C 124.421 139.990,124.420 137.823,124.348 136.559 C 124.276 135.294,124.217 136.426,124.218 139.074 M129.788 139.752 C 129.684 140.022,129.649 141.731,129.710 143.548 L 129.821 146.852 130.003 143.055 C 130.184 139.288,130.152 138.802,129.788 139.752 M268.146 143.258 L 268.329 147.222 268.438 143.551 C 268.498 141.532,268.415 139.748,268.255 139.587 C 268.094 139.425,268.045 141.077,268.146 143.258 M273.087 147.778 C 273.087 149.306,273.153 149.931,273.233 149.167 C 273.313 148.403,273.313 147.153,273.233 146.389 C 273.153 145.625,273.087 146.250,273.087 147.778 M124.559 151.296 C 124.561 152.519,124.630 152.974,124.713 152.308 C 124.795 151.642,124.794 150.642,124.709 150.086 C 124.625 149.529,124.557 150.074,124.559 151.296 M130.119 153.704 C 130.119 155.028,130.186 155.569,130.268 154.907 C 130.350 154.245,130.350 153.162,130.268 152.500 C 130.186 151.838,130.119 152.380,130.119 153.704 M134.936 154.259 C 134.938 155.685,135.005 156.223,135.085 155.455 C 135.165 154.686,135.164 153.520,135.082 152.862 C 135.000 152.205,134.935 152.833,134.936 154.259 M262.714 154.259 C 262.716 155.685,262.783 156.223,262.863 155.455 C 262.943 154.686,262.942 153.520,262.860 152.862 C 262.778 152.205,262.712 152.833,262.714 154.259 M267.889 155.185 C 267.889 156.306,267.958 156.764,268.043 156.204 C 268.128 155.644,268.128 154.727,268.043 154.167 C 267.958 153.606,267.889 154.065,267.889 155.185 M272.693 155.556 C 272.693 156.472,272.766 156.847,272.854 156.389 C 272.942 155.931,272.942 155.181,272.854 154.722 C 272.766 154.264,272.693 154.639,272.693 155.556 M124.921 158.704 C 124.924 159.722,124.995 160.095,125.081 159.532 C 125.166 158.969,125.163 158.136,125.076 157.680 C 124.988 157.225,124.918 157.685,124.921 158.704 M135.300 162.037 C 135.302 163.259,135.371 163.715,135.454 163.049 C 135.536 162.383,135.534 161.383,135.450 160.827 C 135.365 160.270,135.298 160.815,135.300 162.037 M267.529 162.407 C 267.531 163.833,267.598 164.371,267.678 163.603 C 267.758 162.834,267.757 161.668,267.675 161.010 C 267.593 160.353,267.527 160.981,267.529 162.407 M130.471 162.222 C 130.471 163.139,130.543 163.514,130.632 163.056 C 130.720 162.597,130.720 161.847,130.632 161.389 C 130.543 160.931,130.471 161.306,130.471 162.222 M262.328 162.407 C 262.331 163.426,262.403 163.799,262.488 163.236 C 262.573 162.673,262.571 161.839,262.483 161.384 C 262.395 160.928,262.325 161.389,262.328 162.407 M272.328 163.519 C 272.331 164.537,272.403 164.910,272.488 164.347 C 272.573 163.784,272.571 162.950,272.483 162.495 C 272.395 162.039,272.325 162.500,272.328 163.519 M125.300 166.111 C 125.302 167.333,125.371 167.789,125.454 167.123 C 125.536 166.457,125.534 165.457,125.450 164.901 C 125.365 164.344,125.298 164.889,125.300 166.111 M130.852 168.519 C 130.852 169.639,130.921 170.097,131.006 169.537 C 131.091 168.977,131.091 168.060,131.006 167.500 C 130.921 166.940,130.852 167.398,130.852 168.519 M135.670 170.185 C 135.672 171.407,135.742 171.863,135.824 171.197 C 135.906 170.531,135.905 169.531,135.820 168.975 C 135.736 168.418,135.668 168.963,135.670 170.185 M271.945 169.444 C 271.949 170.259,272.025 170.549,272.114 170.088 C 272.202 169.628,272.199 168.961,272.106 168.607 C 272.014 168.253,271.941 168.630,271.945 169.444 M267.138 170.000 C 267.138 170.917,267.210 171.292,267.298 170.833 C 267.387 170.375,267.387 169.625,267.298 169.167 C 267.210 168.708,267.138 169.083,267.138 170.000 M261.953 170.370 C 261.953 171.287,262.025 171.662,262.113 171.204 C 262.202 170.745,262.202 169.995,262.113 169.537 C 262.025 169.079,261.953 169.454,261.953 170.370 M125.641 171.852 C 125.641 172.565,125.718 172.856,125.811 172.500 C 125.904 172.144,125.904 171.560,125.811 171.204 C 125.718 170.847,125.641 171.139,125.641 171.852 M131.205 175.000 C 131.209 175.815,131.284 176.105,131.373 175.644 C 131.462 175.183,131.458 174.516,131.366 174.162 C 131.273 173.808,131.200 174.185,131.205 175.000 M266.760 175.741 C 266.764 176.556,266.840 176.845,266.929 176.385 C 267.017 175.924,267.014 175.257,266.921 174.903 C 266.828 174.549,266.756 174.926,266.760 175.741 M271.575 175.741 C 271.579 176.556,271.655 176.845,271.743 176.385 C 271.832 175.924,271.829 175.257,271.736 174.903 C 271.643 174.549,271.571 174.926,271.575 175.741 M136.012 175.926 C 136.012 176.639,136.088 176.931,136.181 176.574 C 136.274 176.218,136.274 175.634,136.181 175.278 C 136.088 174.921,136.012 175.213,136.012 175.926 M261.582 176.296 C 261.582 177.213,261.655 177.588,261.743 177.130 C 261.831 176.671,261.831 175.921,261.743 175.463 C 261.655 175.005,261.582 175.380,261.582 176.296 M131.575 179.444 C 131.579 180.259,131.655 180.549,131.743 180.088 C 131.832 179.628,131.829 178.961,131.736 178.607 C 131.643 178.253,131.571 178.630,131.575 179.444 M136.382 181.111 C 136.382 181.824,136.458 182.116,136.552 181.759 C 136.645 181.403,136.645 180.819,136.552 180.463 C 136.458 180.106,136.382 180.398,136.382 181.111 M261.197 181.852 C 261.197 182.565,261.273 182.856,261.366 182.500 C 261.460 182.144,261.460 181.560,261.366 181.204 C 261.273 180.847,261.197 181.139,261.197 181.852 M95.184 193.629 L 95.369 200.926 95.471 193.916 C 95.527 190.060,95.444 186.777,95.286 186.619 C 95.129 186.461,95.083 189.615,95.184 193.629 M315.467 186.558 C 315.928 186.647,316.595 186.643,316.949 186.551 C 317.303 186.458,316.926 186.386,316.111 186.390 C 315.296 186.394,315.007 186.470,315.467 186.558 M104.538 188.333 C 104.542 189.148,104.618 189.438,104.706 188.977 C 104.795 188.516,104.792 187.850,104.699 187.496 C 104.606 187.142,104.534 187.519,104.538 188.333 M104.594 195.741 C 104.595 199.000,104.651 200.284,104.720 198.594 C 104.789 196.903,104.789 194.237,104.719 192.668 C 104.650 191.099,104.594 192.481,104.594 195.741 M312.679 191.852 C 312.679 192.565,312.755 192.856,312.848 192.500 C 312.941 192.144,312.941 191.560,312.848 191.204 C 312.755 190.847,312.679 191.139,312.679 191.852 M318.275 194.259 C 318.276 195.889,318.342 196.509,318.420 195.638 C 318.498 194.767,318.497 193.434,318.417 192.675 C 318.338 191.917,318.274 192.630,318.275 194.259 M71.600 194.444 C 71.600 195.769,71.667 196.310,71.749 195.648 C 71.832 194.986,71.832 193.903,71.749 193.241 C 71.667 192.579,71.600 193.120,71.600 194.444 M76.760 200.185 C 76.764 201.000,76.840 201.290,76.929 200.829 C 77.017 200.368,77.014 199.702,76.921 199.348 C 76.828 198.993,76.756 199.370,76.760 200.185 M312.679 204.815 C 312.679 205.528,312.755 205.819,312.848 205.463 C 312.941 205.106,312.941 204.523,312.848 204.167 C 312.755 203.810,312.679 204.102,312.679 204.815 M110.093 205.741 C 110.098 206.556,110.173 206.845,110.262 206.385 C 110.351 205.924,110.347 205.257,110.254 204.903 C 110.162 204.549,110.089 204.926,110.093 205.741 M95.271 209.259 C 95.271 209.972,95.347 210.264,95.440 209.907 C 95.534 209.551,95.534 208.968,95.440 208.611 C 95.347 208.255,95.271 208.546,95.271 209.259 M268.611 211.737 C 268.968 211.830,269.551 211.830,269.907 211.737 C 270.264 211.644,269.972 211.567,269.259 211.567 C 268.546 211.567,268.255 211.644,268.611 211.737 M120.652 215.447 C 121.113 215.536,121.780 215.532,122.134 215.440 C 122.488 215.347,122.111 215.274,121.296 215.279 C 120.481 215.283,120.192 215.359,120.652 215.447 M231.273 252.315 L 230.185 253.519 231.389 252.431 C 232.051 251.832,232.593 251.291,232.593 251.227 C 232.593 250.941,232.287 251.193,231.273 252.315 M235.717 253.796 L 234.630 255.000 235.833 253.912 C 236.495 253.314,237.037 252.772,237.037 252.708 C 237.037 252.422,236.731 252.674,235.717 253.796 M171.667 258.148 C 173.082 259.574,174.323 260.741,174.425 260.741 C 174.526 260.741,173.452 259.574,172.037 258.148 C 170.622 256.722,169.381 255.556,169.279 255.556 C 169.177 255.556,170.252 256.722,171.667 258.148 M166.111 258.148 C 167.321 259.370,168.393 260.370,168.495 260.370 C 168.597 260.370,167.691 259.370,166.481 258.148 C 165.272 256.926,164.199 255.926,164.097 255.926 C 163.995 255.926,164.902 256.926,166.111 258.148 M229.624 260.278 L 225.370 264.630 229.722 260.376 C 232.116 258.037,234.074 256.079,234.074 256.025 C 234.074 255.758,233.574 256.236,229.624 260.278 M225.356 258.611 L 223.519 260.556 225.463 258.718 C 227.270 257.010,227.577 256.667,227.301 256.667 C 227.242 256.667,226.367 257.542,225.356 258.611 M160.725 259.352 C 162.260 260.987,162.593 261.281,162.593 261.003 C 162.593 260.944,161.801 260.152,160.833 259.244 L 159.074 257.593 160.725 259.352 M232.216 263.981 L 227.963 268.333 232.315 264.080 C 234.708 261.741,236.667 259.783,236.667 259.728 C 236.667 259.462,236.167 259.939,232.216 263.981 M170.556 262.593 C 171.559 263.611,172.463 264.444,172.565 264.444 C 172.667 264.444,171.929 263.611,170.926 262.593 C 169.923 261.574,169.019 260.741,168.917 260.741 C 168.815 260.741,169.552 261.574,170.556 262.593 M220.532 274.537 L 219.444 275.741 220.648 274.653 C 221.310 274.055,221.852 273.513,221.852 273.449 C 221.852 273.163,221.546 273.415,220.532 274.537 " stroke="none" fill="#065c60" fill-rule="evenodd"></path><path id="path4" d="M273.096 141.852 C 273.096 143.787,273.159 144.579,273.235 143.611 C 273.311 142.644,273.311 141.060,273.235 140.093 C 273.159 139.125,273.096 139.917,273.096 141.852 M134.975 143.450 C 134.872 143.717,134.842 145.759,134.908 147.987 L 135.028 152.037 135.107 147.716 C 135.162 144.668,135.322 143.340,135.648 143.208 C 136.011 143.062,136.008 143.015,135.637 142.992 C 135.376 142.976,135.078 143.182,134.975 143.450 M262.730 148.148 C 262.730 150.287,262.791 151.162,262.866 150.093 C 262.940 149.023,262.940 147.273,262.866 146.204 C 262.791 145.134,262.730 146.009,262.730 148.148 M124.559 147.222 C 124.561 148.444,124.630 148.900,124.713 148.234 C 124.795 147.568,124.794 146.568,124.709 146.012 C 124.625 145.455,124.557 146.000,124.559 147.222 M129.748 148.889 C 129.748 150.213,129.815 150.755,129.898 150.093 C 129.980 149.431,129.980 148.347,129.898 147.685 C 129.815 147.023,129.748 147.565,129.748 148.889 M268.267 149.259 C 268.267 150.583,268.334 151.125,268.416 150.463 C 268.498 149.801,268.498 148.718,268.416 148.056 C 268.334 147.394,268.267 147.935,268.267 149.259 M272.704 152.222 C 272.704 153.343,272.773 153.801,272.858 153.241 C 272.943 152.681,272.943 151.764,272.858 151.204 C 272.773 150.644,272.704 151.102,272.704 152.222 M124.926 155.185 C 124.926 156.306,124.995 156.764,125.080 156.204 C 125.165 155.644,125.165 154.727,125.080 154.167 C 124.995 153.606,124.926 154.065,124.926 155.185 M130.101 157.407 C 130.101 158.324,130.173 158.699,130.261 158.241 C 130.350 157.782,130.350 157.032,130.261 156.574 C 130.173 156.116,130.101 156.491,130.101 157.407 M135.291 158.333 C 135.294 159.352,135.366 159.725,135.451 159.162 C 135.536 158.599,135.534 157.765,135.446 157.310 C 135.358 156.854,135.288 157.315,135.291 158.333 M262.333 158.889 C 262.333 160.009,262.403 160.468,262.488 159.907 C 262.572 159.347,262.572 158.431,262.488 157.870 C 262.403 157.310,262.333 157.769,262.333 158.889 M267.889 158.889 C 267.889 160.009,267.958 160.468,268.043 159.907 C 268.128 159.347,268.128 158.431,268.043 157.870 C 267.958 157.310,267.889 157.769,267.889 158.889 M272.323 160.370 C 272.323 161.287,272.395 161.662,272.484 161.204 C 272.572 160.745,272.572 159.995,272.484 159.537 C 272.395 159.079,272.323 159.454,272.323 160.370 M125.286 162.593 C 125.286 163.509,125.358 163.884,125.447 163.426 C 125.535 162.968,125.535 162.218,125.447 161.759 C 125.358 161.301,125.286 161.676,125.286 162.593 M130.471 165.185 C 130.471 166.102,130.543 166.477,130.632 166.019 C 130.720 165.560,130.720 164.810,130.632 164.352 C 130.543 163.894,130.471 164.269,130.471 165.185 M267.501 166.111 C 267.505 166.926,267.581 167.216,267.669 166.755 C 267.758 166.294,267.755 165.628,267.662 165.273 C 267.569 164.919,267.497 165.296,267.501 166.111 M135.656 166.667 C 135.656 167.583,135.729 167.958,135.817 167.500 C 135.905 167.042,135.905 166.292,135.817 165.833 C 135.729 165.375,135.656 165.750,135.656 166.667 M271.953 166.667 C 271.953 167.583,272.025 167.958,272.113 167.500 C 272.202 167.042,272.202 166.292,272.113 165.833 C 272.025 165.375,271.953 165.750,271.953 166.667 M261.958 167.222 C 261.961 168.241,262.032 168.613,262.118 168.050 C 262.203 167.487,262.200 166.654,262.113 166.199 C 262.025 165.743,261.955 166.204,261.958 167.222 M125.649 169.444 C 125.653 170.259,125.729 170.549,125.818 170.088 C 125.906 169.628,125.903 168.961,125.810 168.607 C 125.717 168.253,125.645 168.630,125.649 169.444 M130.834 171.667 C 130.838 172.481,130.914 172.771,131.003 172.310 C 131.091 171.850,131.088 171.183,130.995 170.829 C 130.903 170.475,130.830 170.852,130.834 171.667 M267.138 172.963 C 267.138 173.880,267.210 174.255,267.298 173.796 C 267.387 173.338,267.387 172.588,267.298 172.130 C 267.210 171.671,267.138 172.046,267.138 172.963 M136.027 173.333 C 136.027 174.250,136.099 174.625,136.187 174.167 C 136.276 173.708,136.276 172.958,136.187 172.500 C 136.099 172.042,136.027 172.417,136.027 173.333 M261.582 173.333 C 261.582 174.250,261.655 174.625,261.743 174.167 C 261.831 173.708,261.831 172.958,261.743 172.500 C 261.655 172.042,261.582 172.417,261.582 173.333 M271.575 173.148 C 271.579 173.963,271.655 174.253,271.743 173.792 C 271.832 173.331,271.829 172.665,271.736 172.310 C 271.643 171.956,271.571 172.333,271.575 173.148 M266.753 178.148 C 266.753 178.861,266.829 179.153,266.922 178.796 C 267.015 178.440,267.015 177.856,266.922 177.500 C 266.829 177.144,266.753 177.435,266.753 178.148 M136.382 178.889 C 136.382 179.602,136.458 179.894,136.552 179.537 C 136.645 179.181,136.645 178.597,136.552 178.241 C 136.458 177.884,136.382 178.176,136.382 178.889 M126.382 179.259 C 126.382 179.972,126.458 180.264,126.552 179.907 C 126.645 179.551,126.645 178.968,126.552 178.611 C 126.458 178.255,126.382 178.546,126.382 179.259 M261.197 179.630 C 261.197 180.343,261.273 180.634,261.366 180.278 C 261.460 179.921,261.460 179.338,261.366 178.981 C 261.273 178.625,261.197 178.917,261.197 179.630 M136.753 183.333 C 136.753 184.046,136.829 184.338,136.922 183.981 C 137.015 183.625,137.015 183.042,136.922 182.685 C 136.829 182.329,136.753 182.620,136.753 183.333 M92.500 186.558 C 92.958 186.646,93.708 186.646,94.167 186.558 C 94.625 186.469,94.250 186.397,93.333 186.397 C 92.417 186.397,92.042 186.469,92.500 186.558 M326.764 186.562 C 327.327 186.647,328.161 186.645,328.616 186.557 C 329.072 186.469,328.611 186.399,327.593 186.402 C 326.574 186.405,326.201 186.477,326.764 186.562 M329.731 188.148 C 329.731 189.065,329.803 189.440,329.891 188.981 C 329.979 188.523,329.979 187.773,329.891 187.315 C 329.803 186.856,329.731 187.231,329.731 188.148 M71.575 197.963 C 71.579 198.778,71.655 199.068,71.743 198.607 C 71.832 198.146,71.829 197.479,71.736 197.125 C 71.643 196.771,71.571 197.148,71.575 197.963 M76.753 197.778 C 76.753 198.491,76.829 198.782,76.922 198.426 C 77.015 198.069,77.015 197.486,76.922 197.130 C 76.829 196.773,76.753 197.065,76.753 197.778 M95.322 204.444 C 95.322 206.583,95.383 207.458,95.458 206.389 C 95.533 205.319,95.533 203.569,95.458 202.500 C 95.383 201.431,95.322 202.306,95.322 204.444 M104.581 205.185 C 104.581 207.324,104.643 208.199,104.717 207.130 C 104.792 206.060,104.792 204.310,104.717 203.241 C 104.643 202.171,104.581 203.046,104.581 205.185 M323.056 202.107 C 323.412 202.200,323.995 202.200,324.352 202.107 C 324.708 202.014,324.417 201.938,323.704 201.938 C 322.991 201.938,322.699 202.014,323.056 202.107 M312.734 210.185 C 312.735 212.630,312.795 213.581,312.867 212.300 C 312.940 211.019,312.939 209.019,312.866 207.856 C 312.793 206.693,312.733 207.741,312.734 210.185 M76.382 212.963 C 76.382 213.676,76.458 213.968,76.552 213.611 C 76.645 213.255,76.645 212.671,76.552 212.315 C 76.458 211.958,76.382 212.250,76.382 212.963 M294.727 215.447 C 295.187 215.536,295.854 215.532,296.208 215.440 C 296.562 215.347,296.185 215.274,295.370 215.279 C 294.556 215.283,294.266 215.359,294.727 215.447 M166.667 252.708 C 166.667 252.772,167.208 253.314,167.870 253.912 L 169.074 255.000 167.986 253.796 C 166.972 252.674,166.667 252.422,166.667 252.708 M228.869 254.722 L 227.593 256.111 228.981 254.835 C 230.274 253.647,230.541 253.333,230.258 253.333 C 230.196 253.333,229.571 253.958,228.869 254.722 M235.906 259.907 L 234.630 261.296 236.019 260.020 C 236.782 259.318,237.407 258.693,237.407 258.631 C 237.407 258.348,237.094 258.615,235.906 259.907 M165.926 264.630 C 167.853 266.565,169.513 268.148,169.615 268.148 C 169.717 268.148,168.223 266.565,166.296 264.630 C 164.369 262.694,162.709 261.111,162.607 261.111 C 162.505 261.111,163.999 262.694,165.926 264.630 " stroke="none" fill="#108484" fill-rule="evenodd"></path></g></svg>